<?xml version="1.0" encoding="utf-8"?>
<!-- Generator: Adobe Illustrator 16.0.0, SVG Export Plug-In . SVG Version: 6.00 Build 0)  -->
<!DOCTYPE svg PUBLIC "-//W3C//DTD SVG 1.1//EN" "http://www.w3.org/Graphics/SVG/1.1/DTD/svg11.dtd">
<svg version="1.1" xmlns="http://www.w3.org/2000/svg" xmlns:xlink="http://www.w3.org/1999/xlink" x="0px" y="0px" width="512px"
	 height="512px" viewBox="0 0 512 512" enable-background="new 0 0 512 512" xml:space="preserve">
<g id="Layer_1" display="none">
	<g display="inline">
		<path fill="#282828" d="M512,357.089C512,412.82,466.82,458,411.088,458H100.912C45.18,458,0,412.82,0,357.089V153.911
			C0,98.18,45.18,53,100.912,53h310.176C466.82,53,512,98.18,512,153.911V357.089z M489,153.985C489,110.915,454.084,76,411.014,76
			H100.987C57.916,76,23,110.915,23,153.985v203.031C23,400.085,57.916,435,100.987,435h310.027
			c43.07,0,77.986-34.915,77.986-77.984V153.985z"/>
		<path fill="#282828" d="M441.905,136.788l-8.043,7.546c-12.571-18.073-33.489-29.917-57.141-29.917
			c-38.4,0-69.636,31.236-69.636,69.635c0,9.018,1.718,17.806,5.082,26.135c1.146,2.789-0.211,5.961-3,7.107
			c-2.789,1.127-5.979-0.229-7.106-3.019c-3.897-9.629-5.885-19.793-5.885-30.224c0-44.418,36.127-80.544,80.545-80.544
			C403.487,103.508,427.252,116.632,441.905,136.788z"/>
		<path fill="#282828" d="M457.265,184.052c0,10.412-1.986,20.595-5.884,30.224c-0.858,2.12-2.903,3.4-5.062,3.4
			c-0.688,0-1.375-0.115-2.045-0.381c-2.789-1.146-4.146-4.318-2.998-7.107c3.361-8.329,5.08-17.137,5.08-26.135
			c0-11.979-3.037-23.269-8.405-33.127l6.973-9.667C452.739,153.676,457.265,168.349,457.265,184.052z"/>
		<path fill="#282828" d="M368.53,202.457l83.281-78.22l-66.897,92.625c-3.543,4.906-10.392,6.01-15.299,2.467
			c-4.906-3.543-6.011-10.394-2.468-15.3C367.552,203.468,368.045,202.918,368.53,202.457z"/>
		
			<line fill="none" stroke="#282828" stroke-width="10" stroke-linecap="round" stroke-miterlimit="10" x1="261" y1="109" x2="261" y2="380"/>
		<path fill="#282828" stroke="#282828" stroke-width="15" stroke-linecap="round" stroke-miterlimit="10" d="M223.5,200.047
			c0,9.639-7.814,17.453-17.454,17.453H80.954c-9.639,0-17.454-7.814-17.454-17.453v-64.094c0-9.639,7.814-17.453,17.454-17.453
			h125.093c9.639,0,17.454,7.814,17.454,17.453V200.047z"/>
		<path fill="none" stroke="#282828" stroke-width="10" stroke-linecap="round" stroke-miterlimit="10" d="M222,332.547
			c0,9.639-7.814,17.453-17.454,17.453H79.454C69.814,350,62,342.186,62,332.547v-64.094C62,258.814,69.814,251,79.454,251h125.093
			c9.639,0,17.454,7.814,17.454,17.453V332.547z"/>
		<path fill="#282828" d="M299.94,273H331v10h-31.06c-2.637,0-4.776-2.363-4.776-5S297.304,273,299.94,273z"/>
		<path fill="#282828" d="M457.552,278c0,2.637-2.14,5-4.775,5H353v-10h99.776C455.412,273,457.552,275.363,457.552,278z"/>
		<path fill="#282828" d="M348,297.217c0,3.613-3.229,6.783-6.845,6.783h-4.102c-3.615,0-6.054-3.17-6.054-6.783v-34.672
			c0-3.614,2.438-6.545,6.054-6.545h4.102c3.615,0,6.845,2.931,6.845,6.545V297.217z"/>
		<path fill="#282828" d="M299.94,325H407v9H299.94c-2.637,0-4.776-1.863-4.776-4.5S297.304,325,299.94,325z"/>
		<path fill="#282828" d="M457.552,329.5c0,2.637-2.14,4.5-4.775,4.5H430v-9h22.776C455.412,325,457.552,326.863,457.552,329.5z"/>
		<path fill="#282828" d="M424,348.799c0,3.613-2.812,6.201-6.427,6.201h-4.102c-3.615,0-6.472-2.588-6.472-6.201v-34.672
			c0-3.614,2.856-6.127,6.472-6.127h4.102c3.615,0,6.427,2.513,6.427,6.127V348.799z"/>
		<path fill="#282828" d="M299.94,378H350v10h-50.06c-2.637,0-4.776-2.364-4.776-5C295.164,380.363,297.304,378,299.94,378z"/>
		<path fill="#282828" d="M457.552,383c0,2.636-2.14,5-4.775,5H373v-10h79.776C455.412,378,457.552,380.363,457.552,383z"/>
		<path fill="#282828" d="M367,402.455c0,3.614-2.931,6.545-6.546,6.545h-3.908c-3.615,0-6.546-2.931-6.546-6.545v-34.91
			c0-3.614,2.931-6.545,6.546-6.545h3.908c3.615,0,6.546,2.931,6.546,6.545V402.455z"/>
		<path fill="#282828" d="M157,393.626c0,7.387-5.987,13.374-13.373,13.374h-0.254c-7.386,0-13.373-5.987-13.373-13.374v-0.252
			c0-7.387,5.987-13.374,13.373-13.374h0.254c7.386,0,13.373,5.987,13.373,13.374V393.626z"/>
	</g>
</g>
<g id="Layer_3" display="none">
	<g display="inline">
		<path fill="#282828" d="M411.342,459c-0.1,0-0.198,0-0.297,0H399v-23h12.088c0.463,0,0.888-0.211,1.313-0.218l0.422,23.062
			C412.33,458.854,411.836,459,411.342,459z M394,459h-14v-23h14V459z M373,459h-12v-23h12V459z M353,459h-13v-23h13V459z M332,459
			h-11v-23h11V459z M313,459h-13v-23h13V459z M294,459h-13v-23h13V459z M273,459h-11v-23h11V459z M254,459h-13v-23h13V459z M233,459
			h-11v-23h11V459z M214,459h-11v-23h11V459z M195,459h-14v-23h14V459z M174,459h-12v-23h12V459z M155,459h-14v-23h14V459z M134,459
			h-12v-23h12V459z M115,459h-12v-23h12V459z M94.079,458.278c-4.656-0.312-9.319-0.95-13.861-1.899l4.687-22.44
			c3.506,0.731,7.107,1.226,10.706,1.467L94.079,458.278z M421.179,458.01l-2.269-22.813c3.584-0.356,7.168-0.967,10.649-1.812
			l5.414,22.275C430.461,456.758,425.819,457.547,421.179,458.01z M72.073,454.323c-4.469-1.331-8.881-2.989-13.115-4.928
			l9.543-20.844c3.265,1.495,6.669,2.772,10.117,3.801L72.073,454.323z M443.049,453.338l-7.254-21.746
			c3.403-1.135,6.759-2.522,9.979-4.125l10.213,20.525C451.812,450.069,447.459,451.867,443.049,453.338z M51.471,445.586
			c-4.053-2.282-7.986-4.869-11.689-7.692l13.901-18.231c2.861,2.183,5.9,4.183,9.033,5.946L51.471,445.586z M463.342,443.94
			l-11.885-19.604c3.074-1.864,6.047-3.961,8.832-6.229l14.478,17.776C471.164,438.817,467.321,441.528,463.342,443.94z
			 M33.323,432.528c-3.452-3.116-6.717-6.5-9.707-10.059l17.552-14.746c2.315,2.754,4.844,5.375,7.517,7.789L33.323,432.528z
			 M481.051,430.319l-15.899-16.519c2.593-2.495,5.037-5.194,7.267-8.026l18.011,14.183
			C487.554,423.61,484.397,427.097,481.051,430.319z M18.488,415.828c-2.688-3.8-5.133-7.818-7.267-11.943l20.366-10.528
			c1.647,3.187,3.537,6.293,5.616,9.229L18.488,415.828z M495.34,413.151l-19.12-12.646c1.979-2.995,3.768-6.159,5.313-9.405
			l20.698,9.858C500.226,405.17,497.906,409.271,495.34,413.151z M7.68,396.271c-1.789-4.304-3.287-8.772-4.454-13.278l22.192-5.75
			c0.899,3.473,2.054,6.916,3.433,10.233L7.68,396.271z M505.528,393.224l-21.452-8.089c1.271-3.366,2.313-6.852,3.103-10.358
			l22.366,5.029C508.524,384.349,507.172,388.864,505.528,393.224z M1.459,374.781c-0.786-4.578-1.258-9.259-1.406-13.916
			l22.914-0.724c0.114,3.603,0.479,7.223,1.087,10.76L1.459,374.781z M511.043,371.539l-22.709-3.146
			c0.49-3.549,0.74-7.181,0.74-10.797L512,357.506v0.091C512,362.26,511.677,366.949,511.043,371.539z M23,353H0v-13h23V353z
			 M512,350h-23v-12h23V350z M23,332H0v-11h23V332z M512,331h-23v-14h23V331z M23,313H0v-11h23V313z M512,309h-23v-11h23V309z
			 M23,294H0v-13h23V294z M512,290h-23v-11h23V290z M23,273H0v-11h23V273z M512,271h-23v-13h23V271z M23,254H0v-13h23V254z M512,250
			h-23v-11h23V250z M23,233H0v-11h23V233z M512,231h-23v-13h23V231z M23,214H0v-11h23V214z M512,210h-23v-11h23V210z M23,195H0v-14
			h23V195z M512,191h-23v-11h23V191z M23,174H0v-12h23V174z M512,172h-23v-13h23V172z M0,154.449v-0.046
			c0-4.642,0.319-9.314,0.95-13.888l22.711,3.128c-0.488,3.541-0.735,7.161-0.735,10.759L0,154.449z M489.031,151.822
			c-0.117-3.613-0.484-7.233-1.093-10.76l22.593-3.894c0.786,4.564,1.264,9.243,1.415,13.91L489.031,151.822z M24.813,137.261
			l-22.371-5.013c1.021-4.551,2.37-9.07,4.014-13.428l21.452,8.09C26.641,130.269,25.6,133.751,24.813,137.261z M486.574,134.726
			c-0.906-3.483-2.064-6.929-3.439-10.241l21.167-8.799c1.786,4.292,3.284,8.755,4.459,13.264L486.574,134.726z M30.448,120.937
			l-20.702-9.849c1.999-4.202,4.313-8.303,6.88-12.192l19.134,12.627C33.778,114.526,31.991,117.693,30.448,120.937z
			 M480.397,118.611c-1.651-3.188-3.543-6.293-5.623-9.231l18.709-13.25c2.69,3.797,5.136,7.814,7.272,11.938L480.397,118.611z
			 M39.561,106.253L21.537,92.087c2.875-3.659,6.031-7.148,9.38-10.373l15.899,16.515C44.227,100.724,41.785,103.423,39.561,106.253
			z M470.81,104.246c-2.322-2.76-4.854-5.379-7.521-7.784l15.347-17.029c3.448,3.107,6.717,6.489,9.715,10.052L470.81,104.246z
			 M51.678,93.92L37.197,76.147c3.607-2.939,7.45-5.652,11.42-8.062l11.896,19.597C57.442,89.547,54.47,91.646,51.678,93.92z
			 M458.283,92.314c-2.861-2.18-5.902-4.179-9.037-5.942l11.239-19.981c4.054,2.28,7.986,4.866,11.69,7.687L458.283,92.314z
			 M66.19,84.551L55.968,64.031c4.167-2.076,8.519-3.877,12.934-5.354l7.271,21.743C72.765,81.559,69.407,82.95,66.19,84.551z
			 M443.469,83.434c-3.28-1.498-6.688-2.775-10.124-3.796l6.53-21.976c4.457,1.325,8.869,2.979,13.115,4.918L443.469,83.434z
			 M82.398,78.626L76.98,56.35c4.511-1.097,9.15-1.889,13.79-2.354l2.284,22.812C89.466,77.167,85.882,77.779,82.398,78.626z
			 M427.067,78.053c-3.521-0.73-7.127-1.222-10.721-1.461l1.522-22.875c4.644,0.309,9.305,0.944,13.854,1.888L427.067,78.053z
			 M99.545,76.221l-0.409-23.064c0.59-0.01,1.182-0.157,1.776-0.157H111v23h-10.088C100.454,76,99.999,76.213,99.545,76.221z
			 M409,76h-12V53h12V76z M390,76h-12V53h12V76z M371,76h-14V53h14V76z M350,76h-12V53h12V76z M331,76h-14V53h14V76z M309,76h-11V53
			h11V76z M290,76h-11V53h11V76z M271,76h-13V53h13V76z M250,76h-11V53h11V76z M231,76h-13V53h13V76z M210,76h-11V53h11V76z M191,76
			h-11V53h11V76z M172,76h-13V53h13V76z M151,76h-12V53h12V76z M132,76h-14V53h14V76z"/>
		<path fill="none" stroke="#282828" stroke-width="10.9086" stroke-miterlimit="10" stroke-dasharray="12.4131,7.4478" d="
			M446.324,212.229c3.526-8.702,5.487-18.207,5.487-28.176c0-41.47-33.619-75.088-75.09-75.088
			c-41.472,0-75.089,33.618-75.089,75.088c0,9.969,1.959,19.475,5.486,28.176"/>
		
			<line fill="none" stroke="#282828" stroke-width="10" stroke-linecap="round" stroke-miterlimit="10" x1="261" y1="109" x2="261" y2="380"/>
		<path fill="none" stroke="#282828" stroke-width="10" stroke-miterlimit="10" d="M222,200.547c0,9.639-7.814,17.453-17.454,17.453
			H79.454C69.814,218,62,210.186,62,200.547v-64.094C62,126.814,69.814,119,79.454,119h125.093c9.639,0,17.454,7.814,17.454,17.453
			V200.547z"/>
		<path fill="none" stroke="#282828" stroke-width="10" stroke-miterlimit="10" stroke-dasharray="12.4131,7.4478" d="M222,332.545
			c0,9.641-7.814,17.455-17.454,17.455H79.454C69.814,350,62,342.186,62,332.545v-64.09C62,258.814,69.814,251,79.454,251h125.093
			c9.639,0,17.454,7.814,17.454,17.455V332.545z"/>
		
			<line fill="none" stroke="#282828" stroke-width="10" stroke-linecap="round" stroke-miterlimit="10" x1="300" y1="278" x2="453" y2="278"/>
		
			<line fill="none" stroke="#282828" stroke-width="10" stroke-linecap="round" stroke-miterlimit="10" x1="300" y1="330" x2="453" y2="330"/>
		
			<line fill="none" stroke="#282828" stroke-width="10" stroke-linecap="round" stroke-miterlimit="10" x1="300" y1="383" x2="453" y2="383"/>
		<path fill="none" stroke="#282828" stroke-width="6" stroke-miterlimit="10" d="M350,300.455c0,3.614-2.931,6.545-6.547,6.545
			h-3.906c-3.616,0-6.547-2.931-6.547-6.545v-34.91c0-3.614,2.931-6.545,6.547-6.545h3.906c3.616,0,6.547,2.931,6.547,6.545V300.455
			z"/>
		<path fill="none" stroke="#282828" stroke-width="6" stroke-miterlimit="10" d="M419,350.453c0,3.615-2.932,6.547-6.547,6.547
			h-3.906c-3.615,0-6.547-2.932-6.547-6.547v-34.906c0-3.615,2.932-6.547,6.547-6.547h3.906c3.615,0,6.547,2.932,6.547,6.547
			V350.453z"/>
		<path fill="none" stroke="#282828" stroke-width="6" stroke-miterlimit="10" d="M375,403.244c0,3.616-2.528,6.756-6.142,6.756
			h-4.104c-3.614,0-6.754-3.14-6.754-6.756v-34.668c0-3.615,3.14-6.576,6.754-6.576h4.104c3.613,0,6.142,2.961,6.142,6.576V403.244z
			"/>
		<path fill="none" stroke="#282828" stroke-width="10" stroke-linecap="round" stroke-miterlimit="10" d="M154,396.627
			c0,7.386-5.987,13.373-13.373,13.373h-0.254c-7.386,0-13.373-5.987-13.373-13.373v-0.254c0-7.386,5.987-13.373,13.373-13.373
			h0.254c7.386,0,13.373,5.987,13.373,13.373V396.627z"/>
	</g>
</g>
<g id="Layer_4" display="none">
	<path display="inline" fill="#282828" d="M245.81,330.91c4.41-0.58,8.22-4.04,9.31-8.42l0.3-1.19L245.81,330.91z M323.31,253.41
		l1.301-0.33c4.43-1.11,7.819-4.99,8.47-9.44L323.31,253.41z M316.06,267.02l-3.229-3.13l-5.38,5.38l3.229,3.12l3.95,3.82
		c1.13,1.09,1.44,3.11,0.69,4.49l-1.601,2.77c-0.819,1.34-2.729,2.08-4.239,1.65l-8.961-2.561l-2.449-0.699
		c-1.28-0.37-2.98,0.02-4.09,0.89c-0.2,0.13-0.37,0.29-0.53,0.47l-8.2,8.19c-0.18,0.16-0.35,0.35-0.49,0.55
		c-0.85,1.12-1.229,2.8-0.87,4.07l0.7,2.46l2.561,8.96c0.43,1.5-0.301,3.41-1.641,4.229l-2.77,1.61c-1.38,0.74-3.4,0.44-4.49-0.69
		l-3.82-3.949l-3.13-3.23l-5.37,5.37l3.13,3.229l3.73,3.86c2.1,2.17,5.1,3.41,8.24,3.41c1.89,0,3.739-0.46,5.34-1.33l3.13-1.81
		c4.25-2.61,6.33-8,4.96-12.79l-2.75-9.65l6.04-6.04l9.64,2.76c0.971,0.271,1.98,0.41,3,0.41c4,0,7.761-2.06,9.801-5.39l1.8-3.11
		c2.399-4.39,1.52-10.109-2.07-13.59L316.06,267.02z M270.01,177.05l8.24-8.52c1.09-1.13,3.11-1.44,4.49-0.69l2.77,1.61
		c1.34,0.82,2.07,2.72,1.641,4.23l-3.261,11.41c-0.43,1.51,0.19,3.59,1.36,4.62l8.2,8.2c1.03,1.18,3.109,1.79,4.62,1.36l11.41-3.26
		c1.51-0.43,3.42,0.31,4.239,1.64l1.391,2.42l0.21,0.36c0.75,1.37,0.439,3.39-0.69,4.48l-8.52,8.25c-1.011,0.98-1.53,2.79-1.24,4.23
		l15.37-15.37c0.819-0.83,1.83-1.46,2.92-1.88c-0.2-1.16-0.59-2.29-1.16-3.35l-0.05-0.08l-0.63-1.09l-1.13-1.95
		c-2.04-3.32-5.801-5.39-9.801-5.39c-1.02,0-2.029,0.14-3,0.42l-9.64,2.76l-6.04-6.04l2.75-9.65c1.37-4.8-0.71-10.18-4.96-12.8
		l-3.13-1.8c-1.601-0.88-3.45-1.34-5.34-1.34c-3.141,0-6.141,1.25-8.24,3.41l-6.97,7.21l-8.271-2.2l-2.43-9.73
		c-1.2-4.8-5.66-8.43-10.62-8.63c0,0-0.13-0.01-1.9-0.01s-1.9,0.01-1.91,0.01c-4.95,0.2-9.41,3.83-10.61,8.63l-2.43,9.73l-8.27,2.2
		l-6.97-7.21c-2.1-2.17-5.1-3.41-8.24-3.41c-1.89,0-3.74,0.46-5.34,1.33l-3.13,1.81c-4.25,2.62-6.33,8-4.96,12.8l2.75,9.65
		l-6.03,6.04l-9.65-2.76c-0.97-0.28-1.98-0.42-3-0.42c-4,0-7.75,2.07-9.8,5.39l-1.81,3.12c-2.39,4.39-1.51,10.11,2.08,13.58
		l7.2,6.98l-2.19,8.26l-9.73,2.43c-4.8,1.2-8.43,5.66-8.63,10.62c0,0-0.01,0.13-0.01,1.9s0.01,1.91,0.01,1.92
		c0.2,4.94,3.83,9.4,8.63,10.6l9.73,2.44l2.2,8.26l-7.21,6.97c-3.6,3.48-4.47,9.19-2.08,13.58l1.81,3.13
		c2.05,3.32,5.8,5.38,9.8,5.38c1.02,0,2.03-0.14,3-0.41l9.65-2.76l6.03,6.04l-2.75,9.65c-1.37,4.8,0.71,10.18,4.96,12.79l3.13,1.81
		c0.26,0.14,0.52,0.271,0.79,0.39c1.41,0.62,2.96,0.94,4.55,0.94c0.19,0,0.38,0,0.57-0.01c1.66-3.79,4.83-8.601,7.49-11.25
		l7.18-7.181c-1.43-0.279-3.23,0.221-4.22,1.24l-8.24,8.521c-0.92,0.949-2.49,1.31-3.78,0.949c-0.25-0.06-0.49-0.149-0.71-0.27
		l-2.77-1.61c-1.34-0.819-2.08-2.729-1.65-4.229l3.27-11.42c0.43-1.5-0.18-3.58-1.36-4.62l-8.2-8.19
		c-1.03-1.18-3.11-1.79-4.62-1.359l-11.41,3.26c-1.51,0.43-3.42-0.311-4.24-1.65l-1.6-2.77c-0.75-1.38-0.44-3.4,0.68-4.49l8.53-8.24
		c1.12-1.09,1.63-3.2,1.13-4.68l-2.98-11.21c-0.31-1.54-1.8-3.11-3.32-3.49l-11.28-2.88c-1.52-0.38-2.64-1.97-2.64-3.54
		c0,0,0-0.11,0-1.61c0-1.49,0-1.6,0-1.6c0-1.57,1.12-3.16,2.64-3.54l11.4-2.88c1.52-0.38,2.95-1.95,3.26-3.49l2.95-11.21
		c0.5-1.49-0.02-3.59-1.15-4.68l-8.53-8.25c-1.12-1.09-1.44-3.11-0.69-4.48l1.6-2.78c0.82-1.33,2.73-2.07,4.24-1.64l11.41,3.26
		c1.51,0.43,3.59-0.18,4.62-1.36l8.2-8.2c1.18-1.03,1.79-3.11,1.36-4.62l-3.27-11.41c-0.43-1.51,0.31-3.41,1.65-4.23l2.77-1.61
		c1.38-0.75,3.4-0.44,4.49,0.69l8.24,8.52c1.09,1.13,3.2,1.64,4.69,1.13l11.21-2.98c1.53-0.31,3.1-1.8,3.48-3.32l2.88-11.51
		c0.38-1.52,1.98-2.82,3.54-2.88c0,0,0.12-0.01,1.61-0.01c1.49,0,1.61,0.01,1.61,0.01c1.56,0.06,3.16,1.36,3.54,2.88l2.88,11.51
		c0.38,1.52,1.95,3.01,3.49,3.32l11.21,2.98C266.81,178.69,268.92,178.18,270.01,177.05z"/>
	<path display="inline" fill="#282828" d="M287.45,227.73c-5.59-19.5-23.58-33.81-44.85-33.81c-25.72,0-46.65,20.92-46.65,46.64
		c0,21.27,14.31,39.26,33.82,44.85c1.89,0.55,3.83,0.97,5.81,1.27l4.31-4.31c-2.12-0.13-4.19-0.43-6.21-0.87
		c-18.83-4.1-32.98-20.9-32.98-40.94c0-23.1,18.8-41.89,41.9-41.89c20.04,0,36.84,14.14,40.94,32.97c0.44,2.02,0.74,4.09,0.87,6.21
		l4.31-4.31C288.42,231.56,288,229.62,287.45,227.73z"/>
	<path display="inline" fill="#282828" d="M351.93,214.93l-2.51-3.52c-2.74-3.83-7.88-8.97-11.71-11.71l-3.51-2.51
		c-2.22-1.58-5.03-2.45-7.9-2.45c-1.72,0-3.41,0.31-4.979,0.88c-1.811,0.67-3.46,1.7-4.801,3.04l-1.409,1.41l-85.34,85.34
		l-21.26,21.26c-1.76,1.75-3.67,4.25-5.34,6.89c-1.46,2.301-2.73,4.7-3.55,6.79c-0.08,0.19-0.15,0.36-0.21,0.54l-10.63,28.851
		c-1.58,4.29-0.33,7.069,0.55,8.34c1.35,1.92,3.58,3.03,6.12,3.03c1.24,0,2.56-0.261,3.93-0.761l28.85-10.63
		c4.55-1.68,10.8-5.68,14.23-9.1l26.6-26.601l5.37-5.369l10.16-10.16l15.93-15.931l10.16-10.17l5.38-5.37l34.4-34.41
		C355.07,228,355.72,220.23,351.93,214.93z M347.47,229.25l-14.39,14.39l-9.771,9.77L307.45,269.27l-13.47,13.48l-9.221,9.21
		l-29.34,29.34l-9.61,9.61l-6.35,6.35c-2.96,2.95-8.58,6.55-12.51,8l-28.85,10.63c-3.92,1.44-5.95-0.58-4.5-4.51l10.63-28.85
		c0.15-0.4,0.32-0.82,0.51-1.25c1.66-3.79,4.83-8.601,7.49-11.25l7.18-7.181l16.17-16.17l4.31-4.31l44.52-44.52l4.31-4.31
		l16.15-16.15l15.37-15.37c0.819-0.83,1.83-1.46,2.92-1.88c2.81-1.1,6.189-0.83,8.64,0.92l3.51,2.51c3.4,2.43,8.181,7.2,10.61,10.6
		l2.51,3.52C350.86,221.09,350.42,226.29,347.47,229.25z"/>
	<path display="inline" fill="#282828" d="M233.18,336.57c0.08,2.09-1.47,4.35-3.45,5.029l-22.06,7.551
		c-2.64-4.931-5.46-6.891-7.22-7.67l7.44-21.73c0.68-1.97,2.94-3.53,5.03-3.46c0,0,5.88,0.19,12.96,7.35
		C232.95,330.8,233.18,336.57,233.18,336.57z"/>
</g>
<g id="Layer_5" display="none">
	<g display="inline">
		<path fill="#282828" d="M428.215,108.054c-5.076-8.228-14.397-13.357-24.314-13.357c-2.551,0-5.053,0.34-7.448,1.042
			l-23.928,6.847l-14.995-14.997l6.846-23.951c3.416-11.897-1.765-25.254-12.311-31.736l-7.76-4.478
			c-3.985-2.187-8.565-3.332-13.252-3.332c-7.784,0-15.256,3.098-20.437,8.486l-17.313,17.86l-20.49-5.441l-6.063-24.159
			c-2.97-11.897-14.037-20.613-26.296-21.104c0,0-0.338,0.267-4.766,0.267h-4.009c-0.649,0-0.729-0.267-0.729-0.267
			c-12.262,0.491-23.327,9.339-26.321,21.289l-6.039,24.055l-20.488,5.389l-17.314-17.875c-5.207-5.39-12.653-8.481-20.438-8.481
			c-4.685,0-9.267,1.136-13.25,3.295l-7.759,4.5c-10.545,6.482-15.724,19.836-12.313,31.733l6.819,23.951l-14.97,14.995
			l-23.951-6.847c-2.395-0.702-4.894-1.042-7.419-1.042c-9.92,0-19.241,5.129-24.317,13.357l-4.505,7.759
			c-5.909,10.908-3.747,25.07,5.156,33.688l17.886,17.313l-5.442,20.489l-24.134,6.039c-11.923,2.994-20.932,14.06-21.427,26.322
			c0,0,0.614,0.313,0.614,4.765c0,2.162,0.665,3.333,0.665,3.984s0,0.753,0,0.753c0,12.264,8.863,23.329,20.787,26.323l23.816,6.04
			l5.28,20.487l-17.953,17.316c-8.902,8.615-11.149,22.779-5.189,33.688l4.461,7.755c5.075,8.23,14.364,13.356,24.308,13.356
			c2.526,0,5.024-0.335,7.418-1.039l23.948-6.82l14.969,14.97l-6.819,23.951c-3.41,11.896,1.768,25.227,12.313,31.735l7.759,4.479
			c0.624,0.338,1.276,0.676,1.953,0.964c2.03-5.178,5.207-11.117,8.824-16.819c-0.625-0.156-1.223-0.39-1.77-0.702l-6.873-3.984
			c-3.307-2.032-5.154-6.769-4.086-10.491l8.095-28.326c1.069-3.749-0.442-8.906-3.384-11.455l-20.332-20.36
			c-2.553-2.915-7.734-4.427-11.456-3.356l-28.327,8.096c-3.749,1.067-8.461-0.784-10.491-4.087l-3.984-6.874
			c-1.873-3.438-1.093-8.437,1.694-11.141l21.139-20.465c2.811-2.709,4.061-7.918,2.811-11.61l-7.393-27.807
			c-0.755-3.827-4.479-7.706-8.252-8.644l-27.847-7.16c-3.749-0.937-6.418-4.894-6.418-8.772c0,0,0-0.287,0-3.984
			c0-3.723,0-4.01,0-4.01c0-3.877,2.669-7.835,6.418-8.772l28.205-7.134c3.775-0.965,7.318-4.842,8.074-8.671L81,168.036
			c1.249-3.696-0.032-8.928-2.869-11.611l-21.142-20.462c-2.788-2.708-3.581-7.733-1.707-11.143l3.975-6.874
			c2.03-3.306,6.737-5.155,10.486-4.087l28.326,8.096c3.722,1.069,8.902-0.44,11.455-3.358l20.332-20.358
			c2.942-2.551,4.453-7.707,3.384-11.457l-8.095-28.326c-1.068-3.723,0.779-8.46,4.086-10.491l6.873-3.984
			c3.411-1.874,8.435-1.093,11.117,1.691l20.462,21.167c2.708,2.785,7.942,4.036,11.639,2.785l27.804-7.393
			c3.801-0.754,7.706-4.479,8.646-8.227l7.158-28.218c0.938-3.747,4.894-6.788,8.772-6.788c0,0,0.288,0,3.984,0
			c3.723,0,3.984,0,3.984,0c3.909,0,7.863,3.041,8.801,6.788l7.134,28.389c0.961,3.749,4.84,7.386,8.665,8.142l27.809,7.349
			c3.697,1.25,8.906-0.007,11.613-2.792l20.46-21.186c2.709-2.784,7.705-3.584,11.145-1.713l6.872,3.986
			c3.308,2.03,5.155,6.77,4.09,10.493L338.16,86.78c-1.065,3.75,0.442,8.907,3.359,11.458l20.335,20.358
			c2.577,2.917,7.731,4.427,11.478,3.358l28.301-8.096c3.749-1.068,8.49,0.781,10.52,4.087l3.463,5.987l3.486-3.488
			c3.305-3.331,7.423-5.883,11.928-7.55L428.215,108.054z M427.537,299.332l-9.581-9.27l-13.302,13.304l9.814,9.504
			c2.785,2.704,3.514,7.703,1.666,11.141l-3.982,6.874c-2.029,3.303-6.771,5.154-10.52,4.087l-22.231-6.354l-39.495,39.497
			l6.353,22.26c1.065,3.723-0.782,8.459-4.09,10.491l-6.872,3.984c-3.439,1.874-8.436,1.094-11.145-1.693l-9.476-9.812
			l-13.356,13.328l9.296,9.604c5.206,5.364,12.652,8.462,20.437,8.462c4.687,0,9.267-1.144,13.252-3.331l7.76-4.479
			c10.546-6.509,15.727-19.862,12.311-31.761l-6.846-23.926l14.995-14.97l23.928,6.82c2.396,0.704,4.897,1.039,7.448,1.039
			c9.917,0,19.238-5.126,24.314-13.356l4.479-7.755C438.628,322.137,436.467,307.947,427.537,299.332z"/>
		<path fill="#282828" d="M235.687,108.678c-63.811,0-115.724,51.914-115.724,115.75c0,52.774,35.512,97.392,83.884,111.273
			l9.684-9.711c-46.705-10.182-81.8-51.859-81.8-101.562c0-57.329,46.654-103.958,103.956-103.958
			c49.728,0,91.411,35.097,101.59,81.804l9.709-9.713C333.11,144.19,288.488,108.678,235.687,108.678z"/>
		<g>
			<path fill="#282828" d="M497.361,167.646l-6.222-8.722c-6.038-8.436-17.856-20.254-26.295-26.294l-8.719-6.223
				c-8.462-6.04-21.353-4.974-28.69,2.371l-268.003,268c-7.317,7.315-16.271,21.296-19.838,31.007l-26.374,71.594
				c-3.592,9.74,1.431,14.762,11.17,11.197l71.567-26.398c9.737-3.569,23.72-12.496,31.035-19.841l268-268.001
				C502.334,188.997,503.404,176.108,497.361,167.646z M123.712,501.358l27.364-79.951c0,0,21.036,0.704,36.396,16.243
				c15.361,15.569,16.193,36.32,16.193,36.32L123.712,501.358z"/>
		</g>
		<path fill="#282828" d="M123.629,477.71c0,0,13.114,0.645,24.11,23.935c-20.055,6.471-29.507,5.832-29.507,5.832L123.629,477.71z"
			/>
	</g>
</g>
<g id="Layer_6" display="none">
	<g display="inline">
		<path fill="#282828" d="M282.523,153l-170.26,18H412v268.946C412,470.802,387.974,495,356.921,495H158.512
			C127.972,495,105,471.314,105,439.946V171.285l-17,1.708v266.953C88,480.363,118.899,512,158.512,512h198.409
			C397.56,512,429,480.363,429,439.946V153H282.523z"/>
		<path fill="#282828" d="M305.527,38.371c-0.172-1.708-0.855-3.146-1.953-4.098c-1.024-0.878-2.292-1.244-3.757-1.097
			L194.321,43.761c-1.757,0.17-3.489,1.049-4.708,2.439c-0.633,0.683-1.659,2.146-1.464,3.952l2.805,28.076
			c37.638-3.781,79.838-8,117.401-11.782L305.527,38.371z M203.541,63.446l-0.536-5.342l88.935-8.927l0.536,5.342L203.541,63.446z
			 M305.527,38.371c-0.172-1.708-0.855-3.146-1.953-4.098c-1.024-0.878-2.292-1.244-3.757-1.097L194.321,43.761
			c-1.757,0.17-3.489,1.049-4.708,2.439c-0.633,0.683-1.659,2.146-1.464,3.952l2.805,28.076c37.638-3.781,79.838-8,117.401-11.782
			L305.527,38.371z M203.541,63.446l-0.536-5.342l88.935-8.927l0.536,5.342L203.541,63.446z M444.612,66.69
			c-0.731-17.782-17.415-24.416-27.88-24.416c-1.344,0-2.756,0.072-4.171,0.195l-72.056,7.244l-1.392-13.855
			c-1.023-10.391-5.854-19.782-13.587-26.441c-7.001-6.049-16.001-9.366-25.296-9.366c-1.341,0-2.682,0.049-4.022,0.195
			L190.71,10.832c-10.099,1-19.807,5.977-26.636,13.586c-7.513,8.416-11.051,19.051-9.953,29.979l1.39,13.855l-73.148,7.367
			C66.751,77.18,59,90.864,59,103.572v0.682l8.387,86.058l20.584-2.073l17.024-1.708l159.211-15.977l165.173-16.562l23.776-2.39
			L444.612,66.69z M282.523,153.479l-170.26,17.075l-7.318,0.731l-17.075,1.708l-7.708,0.78l-7.123-71.153
			c0-0.342,0.074-12.586,10.733-13.635c3.61-0.366,40.101-4.024,87.619-8.806l-2.83-28.076c-0.684-6.878,1.585-13.66,6.391-19.026
			c4.463-4.976,10.805-8.221,17.392-8.903l105.498-10.562c6.854-0.684,13.439,1.366,18.563,5.756
			c4.926,4.269,8.025,10.318,8.707,17.05l2.806,28.077c45.736-4.585,81.056-8.147,86.276-8.659
			c16.122-1.61,16.368,10.928,16.368,10.928l7.122,71.153L282.523,153.479z M303.574,34.272c-1.024-0.878-2.292-1.244-3.757-1.097
			L194.321,43.761c-1.757,0.17-3.489,1.049-4.708,2.439c-0.633,0.683-1.659,2.146-1.464,3.952l2.805,28.076
			c37.638-3.781,79.838-8,117.401-11.782l-2.827-28.075C305.355,36.663,304.672,35.224,303.574,34.272z M203.541,63.446
			l-0.536-5.342l88.935-8.927l0.536,5.342L203.541,63.446z"/>
		<path fill="none" stroke="#282828" stroke-width="5" stroke-miterlimit="10" d="M204.5,409.963c0,5.927-4.007,9.537-9.93,9.537
			h-29.43c-5.923,0-11.64-3.61-11.64-9.537V210.942c0-5.924,5.717-11.442,11.64-11.442h29.43c5.923,0,9.93,5.518,9.93,11.442
			V409.963z"/>
		<path fill="none" stroke="#282828" stroke-width="5" stroke-miterlimit="10" d="M363.5,408.629
			c0,5.927-4.795,10.871-10.722,10.871h-29.767c-5.927,0-10.512-4.944-10.512-10.871V210.554c0-5.925,4.585-11.054,10.512-11.054
			h29.767c5.927,0,10.722,5.128,10.722,11.054V408.629z"/>
		<path fill="none" stroke="#282828" stroke-width="5" stroke-miterlimit="10" d="M285.5,408.629
			c0,5.927-4.852,10.871-10.775,10.871h-29.771c-5.924,0-10.453-4.944-10.453-10.871V210.554c0-5.925,4.529-11.054,10.453-11.054
			h29.771c5.924,0,10.775,5.128,10.775,11.054V408.629z"/>
		<line fill="none" stroke="#282828" stroke-width="5" stroke-miterlimit="10" x1="98" y1="451.5" x2="420" y2="451.5"/>
	</g>
</g>
<g id="Layer_7" display="none">
	<path display="inline" fill="#282828" d="M265.51,2.05c-41.23,0-74.77,33.55-74.77,74.78c0,31.52,19.6,58.55,47.26,69.53
		c4.47,1.78,9.16,3.13,14,4.01v-12.13c-4.91-1.07-9.6-2.72-14-4.88c-20.93-10.22-35.37-31.72-35.37-56.53
		c0-34.67,28.21-62.88,62.88-62.88s62.88,28.21,62.88,62.88c0,24.82-14.449,46.32-35.39,56.54c-4.4,2.15-9.09,3.81-14,4.88v12.13
		c4.84-0.88,9.53-2.24,14-4.01c27.67-10.98,47.29-38.01,47.29-69.54C340.29,35.6,306.74,2.05,265.51,2.05z"/>
	<path display="inline" fill="#282828" d="M398.21,207.09c-28.11-29.91-65.21-49-105.21-54.56v-24.59c9-3.43,15-12.1,15-22.22V63.23
		C308,50.11,297.32,39,284.21,39h-39.09C232,39,221,50.11,221,63.23v42.49c0,10.75,8,19.87,17,22.8v24.79
		c-25,4.3-49.66,14.12-71.04,28.84l-1.41-1.87c3.73-7.41,2.95-16.67-2.7-23.4l-20.86-24.85c-4.07-4.84-10.04-7.62-16.37-7.62
		c-5.02,0-9.9,1.78-13.74,5l-22.86,19.17c-4.38,3.68-7.06,8.84-7.55,14.53c-0.5,5.69,1.26,11.24,4.93,15.6l20.85,24.85
		c4.07,4.85,10.04,7.63,16.37,7.63c1.63,0,3.24-0.19,4.81-0.55l3.14,3.74c-27.08,32.12-41.86,72.44-41.86,114.811
		c0,98.35,80.01,178.35,178.35,178.35c98.351,0,178.431-80,178.431-178.35C446.49,283.63,429.39,240.27,398.21,207.09z
		 M268.06,491.4c-89.439,0-162.209-72.771-162.209-162.21c0-89.44,72.77-162.21,162.209-162.21c89.44,0,162.21,72.77,162.21,162.21
		C430.27,418.63,357.5,491.4,268.06,491.4z M252,118h-7.8c-5.64,0-10.2-4.57-10.2-10.2V65.2c0-5.63,4.56-10.2,10.2-10.2h39.6
		c5.63,0,10.2,4.57,10.2,10.2v42.6c0,5.63-4.57,10.2-10.2,10.2H279v42h-27V118z M129.9,191.57l-2.98,2.5
		c-3.29,2.77-8.2,2.33-10.97-0.96l-20.84-24.84c-2.77-3.3-2.34-8.2,0.96-10.97l22.85-19.18c3.29-2.76,8.2-2.33,10.97,0.96
		l20.84,24.85c2.77,3.29,2.34,8.2-0.96,10.96l-3.97,3.34l18.35,21.86l-15.91,13.34L129.9,191.57z"/>
	<path display="inline" fill="#282828" d="M342.85,226.6l-62.21,92.47c-1.76-2.2-4.12-3.96-6.939-5.011l68.05-88.25L342.85,226.6z"
		/>
	<path display="inline" fill="#282828" d="M263.58,344.7l-18.82,28.439l-11.03-7.949l21.03-26.851c1.91,2.79,4.721,5,8.17,6.16
		C263.15,344.57,263.36,344.64,263.58,344.7z"/>
	<circle display="inline" fill="#282828" cx="268.061" cy="329.191" r="11.69"/>
	<path display="inline" fill="#282828" d="M268.061,471.176c-78.291,0-141.986-63.694-141.986-141.985
		c0-78.292,63.695-141.987,141.986-141.987c78.292,0,141.986,63.695,141.986,141.987
		C410.047,407.481,346.353,471.176,268.061,471.176z M268.061,192.302c-75.48,0-136.887,61.408-136.887,136.888
		c0,75.479,61.407,136.888,136.887,136.888c75.48,0,136.889-61.408,136.889-136.888C404.949,253.71,343.541,192.302,268.061,192.302
		z"/>
	
		<path display="inline" fill="none" stroke="#282828" stroke-width="20.393" stroke-miterlimit="10" stroke-dasharray="8.4971,5.0983" d="
		M331.417,230.187c-17.937-12.579-39.785-19.96-63.356-19.96"/>
	
		<line display="inline" fill="none" stroke="#282828" stroke-width="4" stroke-miterlimit="10" x1="127.637" y1="195.905" x2="149.927" y2="177.431"/>
	
		<line display="inline" fill="none" stroke="#282828" stroke-width="4" stroke-miterlimit="10" x1="248" y1="120" x2="282" y2="120"/>
</g>
<g id="Layer_8" display="none">
	<g display="inline">
		<path fill="#282828" d="M257.646,512h-1.58c-66.299,0-164.902-23.184-191.827-45.098c-2.903-2.354-5.455-5.555-6.987-8.769
			c-1.933-4.07-3.315-8.705-4.117-13.784c-3.689-23.613,5.241-56.597,21.716-80.223c14.596-20.906,36.954-29.378,58.575-37.57
			c17.844-6.76,34.698-13.145,46.7-26.023c5.213-5.609,8.668-11.806,10.556-18.935c2.634-9.976,1.817-21.638-2.581-36.601
			c-8.329-11.202-15.555-23.897-21.488-37.759c-20.977-48.97-22.228-102.468-3.347-143.104c3.643-7.856,8.143-15.381,13.371-22.357
			c7.655-10.168,16.589-18.724,26.564-25.445c16.395-10.958,35.161-16.616,54.182-16.333c18.475,0.28,36.571,6.136,52.338,16.934
			c9.562,6.547,18.216,14.896,25.72,24.813c5.317,7.119,9.808,14.648,13.379,22.424c18.861,40.594,17.616,94.091-3.347,143.068
			c-5.863,13.73-13.056,26.38-21.392,37.622c-4.457,15.059-5.309,26.792-2.686,36.828c1.874,7.142,5.318,13.326,10.525,18.897
			c12.003,12.88,28.825,19.263,46.635,26.021c21.612,8.2,43.961,16.68,58.569,37.628c14,20.124,25.945,54.171,21.694,80.32
			c-0.839,5.16-2.258,9.819-4.218,13.844c-2.285,4.797-7.155,9.392-14.478,13.659c-16.062,9.361-44.814,19.197-78.89,26.979
			C324.646,507.393,287.858,512,257.646,512z M256.03,17.377c-15.113,0-30.03,4.631-43.14,13.393
			c-8.342,5.621-15.871,12.844-22.35,21.45c-4.491,5.993-8.365,12.469-11.502,19.235c-16.836,36.235-15.505,84.434,3.559,128.938
			c5.603,13.088,12.438,24.987,20.314,35.369l0.938,1.236l0.453,1.484c5.757,18.887,6.771,34,3.191,47.561
			c-2.601,9.824-7.525,18.683-14.637,26.336c-14.776,15.855-34.344,23.27-53.268,30.438c-20.034,7.591-38.957,14.759-50.476,31.259
			c-13.671,19.605-21.754,48.658-18.798,67.575c0.54,3.422,1.429,6.456,2.641,9.01c0.26,0.547,1.036,1.756,2.248,2.738
			c10.052,8.181,38.396,18.933,72.224,27.096C185.101,489.587,224.698,495,256.066,495h1.58c50.532,0,137.426-16.609,173.723-37.765
			c5.236-3.052,7.215-5.549,7.536-6.215l0.052-0.156c1.205-2.469,2.14-5.622,2.699-9.073c3.048-18.748-5.033-47.819-18.799-67.605
			c-11.53-16.534-30.445-23.718-50.47-31.315c-18.889-7.168-38.421-14.582-53.178-30.418c-7.116-7.614-12.043-16.484-14.635-26.356
			c-3.559-13.619-2.504-28.794,3.314-47.764l0.451-1.47l0.926-1.226c7.886-10.426,14.688-22.28,20.218-35.232
			c19.056-44.519,20.382-92.718,3.551-128.941c-3.077-6.699-6.938-13.17-11.492-19.267c-6.339-8.377-13.632-15.429-21.646-20.915
			c-12.938-8.862-27.729-13.667-42.772-13.895C256.761,17.38,256.396,17.377,256.03,17.377z"/>
	</g>
	<path display="inline" fill="#282828" d="M254.381,269.953c-32.792,0-57.323-28.641-58.351-29.86l6.116-5.163
		c0.229,0.271,23.209,27.019,52.235,27.019c29.223,0,56.164-26.972,56.432-27.245l5.704,5.615
		C315.328,241.529,286.992,269.953,254.381,269.953z"/>
</g>
<g id="Layer_9" display="none">
	<g display="inline">
		
			<line fill="none" stroke="#282828" stroke-width="5.7215" stroke-linecap="round" stroke-miterlimit="10" x1="72.75" y1="234.831" x2="5" y2="223.692"/>
		
			<line fill="none" stroke="#282828" stroke-width="5.7215" stroke-linecap="round" stroke-miterlimit="10" x1="122.275" y1="155.496" x2="81.468" y2="98.627"/>
		
			<line fill="none" stroke="#282828" stroke-width="5.7215" stroke-linecap="round" stroke-miterlimit="10" x1="212.208" y1="133.096" x2="223.348" y2="65.349"/>
		
			<line fill="none" stroke="#282828" stroke-width="5.7215" stroke-linecap="round" stroke-miterlimit="10" x1="292.207" y1="182.666" x2="349.074" y2="141.857"/>
		
			<line fill="none" stroke="#282828" stroke-width="5.7215" stroke-linecap="round" stroke-miterlimit="10" x1="81.754" y1="331.15" x2="24.888" y2="371.958"/>
		<path fill="#282828" d="M481.531,293.448c-10.484-27.282-33.511-47.514-61.75-54.434c-16.546-23.664-43.929-38.108-73.038-38.108
			c-21.419,0-41.748,7.657-57.646,21.177c-11.52-34.203-41.09-61.122-79.11-67.372c-5.434-0.891-10.968-1.353-16.435-1.353
			c-23.598,0-46.579,8.415-64.731,23.674c-18.35,15.446-30.605,36.986-34.5,60.683c-3.928,23.861,0.935,47.173,12.189,66.634
			c-11.2,14.885-17.855,33.378-17.855,53.399c0,46.789,36.545,85.8,83.157,88.813c0.705,0.044,1.31,0.088,65.776,0.088
			c85.689,0,188.363-0.056,190.817-0.297c21.969-2.068,42.299-12.19,57.25-28.515C500.706,401.403,509,380.071,509,357.761
			C509,333.426,499.034,310.226,481.531,293.448z M426.976,431.162c-2.311,0.23-252.532,0.285-254.139,0.175
			c-38.482-2.485-68.923-34.478-68.923-73.587c0-20.385,8.273-38.834,21.651-52.189c-13.62-18.009-20.144-41.331-16.194-65.368
			c7.657-46.546,51.596-78.076,98.142-70.43c39.208,6.458,67.756,38.647,71.21,76.458c2.278,0.803,4.521,1.705,6.689,2.728
			c13.224-19.769,35.766-32.783,61.331-32.783c27.152,0,50.87,14.664,63.675,36.501c27.262,4.456,49.495,23.84,58.021,49.494
			c15.501,13.521,25.303,33.421,25.303,55.6C493.741,396.145,464.424,427.642,426.976,431.162z"/>
		<path fill="none" stroke="#282828" stroke-width="5.7215" stroke-miterlimit="10" d="M123.144,304.198
			c13.219-12.522,31.076-20.203,50.722-20.203c3.252,0,6.451,0.21,9.586,0.616c11.737-25.165,37.269-42.608,66.871-42.608
			c11.176,0,24.397,4.802,33.884,9.262"/>
		<g>
			<path fill="#282828" d="M185.37,282.222c0,0,0.143,0.021,0.411,0.062c0.3,0.043,0.723,0.112,1.211,0.212
				c1.003,0.189,2.397,0.515,4.036,0.994c0.816,0.252,1.7,0.513,2.613,0.858c0.922,0.311,1.87,0.711,2.845,1.125
				c0.979,0.401,1.95,0.926,2.947,1.402c0.96,0.57,1.965,1.071,2.897,1.711c0.931,0.639,1.882,1.228,2.724,1.955
				c0.429,0.346,0.854,0.688,1.274,1.027c0.409,0.352,0.779,0.743,1.158,1.103c0.374,0.364,0.741,0.722,1.1,1.072
				c0.324,0.385,0.641,0.761,0.95,1.127c0.614,0.73,1.199,1.407,1.625,2.126c0.453,0.693,0.876,1.318,1.228,1.883
				c0.298,0.598,0.558,1.118,0.771,1.548c0.423,0.851,0.665,1.337,0.665,1.337l-0.249,0.129c0,0-0.312-0.438-0.858-1.204
				c-0.27-0.38-0.599-0.841-0.975-1.369c-0.435-0.479-0.925-1.021-1.46-1.612c-0.503-0.61-1.165-1.165-1.848-1.757
				c-0.34-0.294-0.689-0.597-1.045-0.906c-0.387-0.272-0.782-0.551-1.184-0.834c-0.404-0.276-0.794-0.58-1.222-0.844
				c-0.437-0.249-0.878-0.502-1.323-0.757c-0.864-0.541-1.833-0.941-2.764-1.386c-0.93-0.445-1.931-0.756-2.866-1.133
				c-0.981-0.286-1.917-0.62-2.861-0.841c-0.939-0.232-1.841-0.457-2.714-0.603c-0.863-0.181-1.692-0.286-2.451-0.396
				c-1.522-0.193-2.792-0.283-3.661-0.308c-0.447-0.019-0.761-0.019-0.965-0.016c-0.235,0.003-0.361,0.004-0.361,0.004
				L185.37,282.222z"/>
		</g>
		<g>
			<path fill="#282828" d="M430.662,281.284c0,0,5.378,1.085,13.081,4.003c3.85,1.45,8.272,3.356,12.839,5.774
				c2.295,1.187,4.599,2.545,6.918,3.97c2.287,1.472,4.597,3.006,6.797,4.698l1.655,1.264l1.607,1.321
				c1.087,0.861,2.093,1.81,3.121,2.719c1.031,0.907,1.97,1.898,2.945,2.83c0.948,0.959,1.837,1.956,2.738,2.912
				c0.851,1.005,1.687,1.992,2.505,2.958c0.769,1.011,1.521,1.999,2.253,2.961c1.39,1.981,2.672,3.888,3.722,5.732
				c0.271,0.456,0.536,0.903,0.795,1.341c0.234,0.45,0.464,0.891,0.688,1.32c0.443,0.86,0.88,1.671,1.261,2.447
				c0.695,1.581,1.344,2.948,1.803,4.104c0.874,2.332,1.373,3.664,1.373,3.664l-5.473,1.672c0,0-0.378-1.254-1.04-3.448
				c-0.353-1.091-0.87-2.385-1.414-3.893c-0.305-0.739-0.66-1.513-1.018-2.339c-0.182-0.412-0.367-0.835-0.557-1.268
				c-0.214-0.421-0.434-0.852-0.657-1.292c-0.862-1.78-1.943-3.634-3.123-5.58c-0.629-0.949-1.275-1.925-1.936-2.922
				c-0.713-0.964-1.442-1.948-2.184-2.95c-0.795-0.96-1.576-1.964-2.419-2.936c-0.871-0.947-1.705-1.955-2.636-2.887
				c-0.927-0.935-1.833-1.91-2.825-2.806l-1.464-1.376l-1.519-1.323c-2.021-1.777-4.165-3.413-6.301-4.995
				c-2.169-1.536-4.337-3.015-6.512-4.326c-4.326-2.667-8.57-4.836-12.288-6.522C435.961,282.722,430.662,281.284,430.662,281.284z"
				/>
		</g>
	</g>
</g>
<g id="Layer_10">
	<path fill="#282828" d="M365.43,395H305V42.9C305,19.93,286.57,1,263.6,1H140.93C117.96,1,99,19.93,99,42.9V509h308v-72.65
		C407,413.38,388.41,395,365.43,395z M389,491H287l0,0H118V42.9c0-12.78,10.15-22.9,22.93-22.9H263.6c12.78,0,23.4,10.12,23.4,22.9
		V413h78.43c12.78,0,23.57,10.57,23.57,23.35V491z"/>
	<path fill="none" stroke="#282828" stroke-width="6.9432" stroke-linecap="round" stroke-miterlimit="10" d="M398.178,492v-54.391
		c0-12.78-10.364-23.143-23.146-23.143H252.369c-12.781,0-23.144,10.362-23.144,23.143V492H398.178z"/>
	<g>
		
			<line fill="none" stroke="#282828" stroke-width="7" stroke-linecap="round" stroke-miterlimit="10" x1="325" y1="22.5" x2="434" y2="22.5"/>
		
			<line fill="none" stroke="#282828" stroke-width="7" stroke-linecap="round" stroke-miterlimit="10" x1="325" y1="54.5" x2="434" y2="54.5"/>
		
			<line fill="none" stroke="#282828" stroke-width="7" stroke-linecap="round" stroke-miterlimit="10" x1="325" y1="86.5" x2="434" y2="86.5"/>
		
			<line fill="none" stroke="#282828" stroke-width="7" stroke-linecap="round" stroke-miterlimit="10" x1="325" y1="118.5" x2="434" y2="118.5"/>
		
			<line fill="none" stroke="#282828" stroke-width="7" stroke-linecap="round" stroke-miterlimit="10" x1="325" y1="150.5" x2="434" y2="150.5"/>
		
			<line fill="none" stroke="#282828" stroke-width="7" stroke-linecap="round" stroke-miterlimit="10" x1="325" y1="183.5" x2="434" y2="183.5"/>
		
			<line fill="none" stroke="#282828" stroke-width="7" stroke-linecap="round" stroke-miterlimit="10" x1="325" y1="215.5" x2="434" y2="215.5"/>
		
			<line fill="none" stroke="#282828" stroke-width="7" stroke-linecap="round" stroke-miterlimit="10" x1="325" y1="247.5" x2="434" y2="247.5"/>
		
			<line fill="none" stroke="#282828" stroke-width="7" stroke-linecap="round" stroke-miterlimit="10" x1="325" y1="279.5" x2="434" y2="279.5"/>
		
			<line fill="none" stroke="#282828" stroke-width="7" stroke-linecap="round" stroke-miterlimit="10" x1="325" y1="311.5" x2="434" y2="311.5"/>
		
			<line fill="none" stroke="#282828" stroke-width="7" stroke-linecap="round" stroke-miterlimit="10" x1="325" y1="343.5" x2="434" y2="343.5"/>
		
			<line fill="none" stroke="#282828" stroke-width="7" stroke-linecap="round" stroke-miterlimit="10" x1="325" y1="376.5" x2="434" y2="376.5"/>
	</g>
</g>
</svg>
